<svg id="Group_4174" data-name="Group 4174" xmlns="http://www.w3.org/2000/svg" width="857.277" height="304.502" viewBox="0 0 857.277 304.502">
  <g id="Group_3890" data-name="Group 3890" transform="translate(359.243 92.254)">
    <path id="Path_3017" data-name="Path 3017" d="M110.647,51.46h4.328c11.065,0,19.535,2.782,19.535,26.087,0,17.74-3.174,27.428-19.535,27.428h-4.328Zm-10.569,59.884h14.9c18.281,0,30.1-6.272,30.1-33.8,0-26.184-11.913-32.456-30.1-32.456h-14.9Z" transform="translate(-100.078 21.562)" fill="#1b7398"/>
    <path id="Path_3018" data-name="Path 3018" d="M112.993,50.638h9.68V62.219h.193c3.068-6.151,6.43-12.008,14.788-12.678v10.08c-9.319.287-14.981,3.462-14.981,15.795V96.35h-9.68Z" transform="translate(-56.532 36.565)" fill="#1b7398"/>
    <path id="Path_3019" data-name="Path 3019" d="M129.941,63.912c.194-2.62,1.634-10.38,9.125-10.38,7.2,0,8.452,6.79,8.452,10.38Zm26.19,26.521a20.1,20.1,0,0,1-8.713,1.924c-13.735,0-17.764-15.009-17.764-24.054H157c0-8.854-2.782-18.763-17.551-18.763-14.4,0-19.472,9.229-19.472,21.939,0,18.474,10.16,25.968,22.834,25.968a31.857,31.857,0,0,0,13.322-2.6Z" transform="translate(-32.995 36.565)" fill="#1b7398"/>
    <path id="Path_3020" data-name="Path 3020" d="M165.372,95.143a35.649,35.649,0,0,1-12.212,2.3c-14.582,0-23.033-8.752-23.033-25.8,0-13.68,6.243-22.1,19.453-22.1,12.331,0,16.466,6.5,16.466,15.938H155.866c0-5.489-.58-11.945-6.673-11.945-5.6,0-8.5,6.553-8.5,14.837,0,11.175,4.734,23.988,16.515,23.988a22.14,22.14,0,0,0,8.165-1.734Z" transform="translate(1.236 36.565)" fill="#1b7398"/>
    <path id="Path_3021" data-name="Path 3021" d="M140.262,45.088h9.68V76.449h.193c1.541-3.365,5.988-11.9,16.129-11.9,8.071,0,11.519,6.706,11.519,13.339v33.47H168.1V82.7c0-5.77-.873-10.963-5.8-10.963-9.661,0-12.362,15.005-12.362,20.676V111.36h-9.68Z" transform="translate(35.409 21.554)" fill="#1b7398"/>
    <path id="Path_3022" data-name="Path 3022" d="M179.485,108.74a30.108,30.108,0,0,1-6.724.674c-9.112,0-14.383-2.788-14.383-11.631V67.6h-7.3V62.61h7.3V51.847l9.68-5.857V62.61h12.487V67.6H168.058V93.94c0,6.728.674,10,6.917,10a11.718,11.718,0,0,0,4.51-.77Z" transform="translate(71.867 24.593)" fill="#1b7398"/>
    <path id="Path_3023" data-name="Path 3023" d="M169.009,63.912c.188-2.62,1.628-10.38,9.125-10.38,7.2,0,8.451,6.79,8.451,10.38ZM195.2,90.433a20.092,20.092,0,0,1-8.713,1.924c-13.734,0-17.769-15.009-17.769-24.054H196.06c0-8.854-2.775-18.763-17.545-18.763-14.4,0-19.473,9.229-19.473,21.939,0,18.474,10.154,25.968,22.834,25.968a31.9,31.9,0,0,0,13.322-2.6Z" transform="translate(98.733 36.565)" fill="#1b7398"/>
    <path id="Path_3024" data-name="Path 3024" d="M169.968,50.638h9.68V62.219h.193c3.075-6.151,6.437-12.008,14.795-12.678v10.08c-9.318.287-14.988,3.462-14.988,15.795V96.35h-9.68Z" transform="translate(135.571 36.565)" fill="#1b7398"/>
    <path id="Path_3025" data-name="Path 3025" d="M177.816,45.088H187.5V111.36h-9.686Z" transform="translate(162.033 21.554)" fill="#1b7398"/>
    <path id="Path_3026" data-name="Path 3026" d="M208.373,80.287c0,7.8-6.087,11.081-9.468,11.081-3.193,0-5.607-2.7-5.607-6.843,0-8.477,11.015-9.345,15.075-9.634Zm0,16.063h9.68v-29.5c0-8.973-1.247-17.307-16.135-17.307-14.427,0-17.114,7.177-17.595,14.026H194.5c.387-5.4,1.441-10.034,7.416-10.034,6.455,0,6.455,8.3,6.455,13.315V70.9c-6.087.284-25.641.951-25.641,15.074,0,6.36,5.283,11.466,12.5,11.466a14.773,14.773,0,0,0,12.948-7.42h.193Z" transform="translate(178.61 36.565)" fill="#1b7398"/>
    <path id="Path_3027" data-name="Path 3027" d="M194.006,50.647h9.679V61.439h.193c1.547-3.365,5.994-11.9,16.136-11.9,8.064,0,11.514,6.706,11.514,13.339V96.35h-9.68V67.69c0-5.77-.867-10.963-5.794-10.963-9.661,0-12.368,15.005-12.368,20.676V96.35h-9.679Z" transform="translate(216.622 36.565)" fill="#1b7398"/>
    <path id="Path_3028" data-name="Path 3028" d="M215.642,88.492c0-7.978,1.641-18.361,9.243-18.361,8.371,0,9.137,10.383,9.137,18.361,0,7.6-1.154,17.788-9.137,17.788C217.089,106.28,215.642,96.09,215.642,88.492Zm18.767,22.868h9.68V45.088h-9.68v26.87h-.193c-1.348-2.5-4.135-7.4-11.932-7.4-12.119,0-17.208,10.183-17.208,23.929,0,13.175,4.035,23.96,17.208,23.96,7.41,0,10.584-5.5,11.932-8.574h.193Z" transform="translate(253.946 21.554)" fill="#1b7398"/>
    <path id="Path_3029" data-name="Path 3029" d="M142.147,68.858c-2.644,2.456-7.341,4-12.612,4-12.275,0-16.921-9.332-16.921-22.029,0-10.719,3.562-20.988,15.78-20.988,11.314,0,14.152,7.776,14.152,11.91h-5.788c0-4.44-2.108-8.816-8.22-8.816-8.8,0-10.553,9.971-10.553,17.6,0,9.056,2.171,19.233,12.056,19.233a9.372,9.372,0,0,0,7.117-2.667V52.2h-9.586V48.808h14.576Z" transform="translate(-57.812 -29.844)" fill="#ea7712"/>
    <path id="Path_3030" data-name="Path 3030" d="M126.079,41.782c0-1.588,1.092-6.6,6.212-6.6s5.857,4.092,5.857,6.6Zm16.192,17.41a16.873,16.873,0,0,1-5.27.845c-8.87,0-11.04-9.238-11.04-15.581H142.82c0-2.372,0-11.666-10.222-11.666-8.382,0-11.626,6-11.626,14.263,0,10.567,5.594,15.879,14.158,15.879a21.886,21.886,0,0,0,7.142-1.148Z" transform="translate(-29.632 -19.914)" fill="#ea7712"/>
    <path id="Path_3031" data-name="Path 3031" d="M127.652,33.484h4.353v7.04h.119c1.509-3.628,3.979-7.734,8.987-7.734s6.879,4.349,6.879,7.553h.118c.73-2,3.318-7.553,8.807-7.553,4.646,0,6.941,3.381,6.941,8.1v21.34h-4.472V42.882c0-2.236,0-6.408-4.036-6.408-5.127,0-7.36,8.1-7.36,12.817V62.229H143.52V43.609c0-3.085,0-7.135-3.979-7.135-5.121,0-7.416,7.858-7.416,13.423V62.229h-4.472Z" transform="translate(-7.105 -19.911)" fill="#ea7712"/>
    <path id="Path_3032" data-name="Path 3032" d="M142.76,41.782c0-1.588,1.085-6.6,6.212-6.6s5.85,4.092,5.85,6.6Zm16.192,17.41a16.92,16.92,0,0,1-5.277.845c-8.863,0-11.034-9.238-11.034-15.581h16.853c0-2.372,0-11.666-10.223-11.666-8.377,0-11.62,6-11.62,14.263,0,10.567,5.588,15.879,14.158,15.879a21.919,21.919,0,0,0,7.142-1.148Z" transform="translate(26.611 -19.914)" fill="#ea7712"/>
    <path id="Path_3033" data-name="Path 3033" d="M148.966,41.782c0-1.588,1.085-6.6,6.212-6.6s5.85,4.092,5.85,6.6Zm16.185,17.41a16.87,16.87,0,0,1-5.27.845c-8.863,0-11.04-9.238-11.04-15.581H165.7c0-2.372,0-11.666-10.223-11.666-8.377,0-11.626,6-11.626,14.263,0,10.567,5.594,15.879,14.158,15.879a21.857,21.857,0,0,0,7.141-1.148Z" transform="translate(47.512 -19.914)" fill="#ea7712"/>
    <path id="Path_3034" data-name="Path 3034" d="M150.534,33.484h4.347v7.04H155c1.759-3.628,4.671-7.734,10.372-7.734,5.02,0,6.9,4.349,6.9,7.553V62.229h-4.478V43.609c0-3.085,0-7.135-4-7.135-6.063,0-8.794,7.858-8.794,13.423V62.229h-4.466Z" transform="translate(70.044 -19.911)" fill="#ea7712"/>
    <path id="Path_3035" data-name="Path 3035" d="M174.274,69.539a18.787,18.787,0,0,1-3.562.243c-5.918,0-8.638-2.052-8.576-7.247V43.124h-5.071V40.349h5.071V33.506l4.472-2.748v9.591h7.846v2.776h-7.846V60.178c-.062,3.385,0,6.71,4.946,6.71a7.656,7.656,0,0,0,2.72-.363Z" transform="translate(92.066 -26.765)" fill="#ea7712"/>
    <path id="Path_3036" data-name="Path 3036" d="M167.063,41.782c0-1.588,1.085-6.6,6.212-6.6s5.85,4.092,5.85,6.6Zm16.192,17.41a16.878,16.878,0,0,1-5.271.845c-8.869,0-11.039-9.238-11.039-15.581H183.8c0-2.372,0-11.666-10.216-11.666-8.383,0-11.626,6-11.626,14.263,0,10.567,5.594,15.879,14.158,15.879a21.919,21.919,0,0,0,7.142-1.148Z" transform="translate(108.551 -19.914)" fill="#ea7712"/>
  </g>
  <path id="Path_3037" data-name="Path 3037" d="M44.751,64.429s41.14-10.634,53.7,10.089S86.815,134.838,61.8,182.474l72.278-35.8c10.165-16.794,28.683-97.369-20.724-96.758C76.67,51.259,44.751,64.429,44.751,64.429Z" transform="translate(98.688 110.073)" fill="#f17e17"/>
  <path id="Path_3038" data-name="Path 3038" d="M99.651,20.405c.183-1.056-36.743-5.374-59.855.645-.006.013-.012.03-.018.043.991,1.7,4.31,5.98,9.131,6.593,3.273.773,16.616-2.689,28.522-4.571A187.122,187.122,0,0,1,99.651,20.405Z" transform="translate(87.721 39.515)" fill="#f17e17"/>
  <path id="Path_3039" data-name="Path 3039" d="M39.771,18.9c.007.013.014.023.021.034.006-.013.013-.031.018-.043A.122.122,0,0,1,39.771,18.9Z" transform="translate(87.706 41.67)" fill="#ea7712"/>
  <path id="Path_3040" data-name="Path 3040" d="M120.937,27.911c-.049-.3-16.1-.991-32.323.485-20.008,1.667-37.32,5.733-53.157,10.076-.006.018-.011.033-.016.055,1.758,1.944,7.321,6.931,14.472,6.481,4.383.05,23.887-7.354,40.451-12.165C107.147,27.792,120.9,27.811,120.937,27.911Z" transform="translate(78.158 60.612)" fill="#f17e17"/>
  <path id="Path_3041" data-name="Path 3041" d="M35.43,30.926c.01.014.025.028.037.041a.487.487,0,0,1,.016-.055Z" transform="translate(78.132 68.171)" fill="#ea7712"/>
  <path id="Path_3042" data-name="Path 3042" d="M150,42.1c-.236-.732-18.211-8.777-41.793-4.85-23.408,2.115-54.615,18.182-76.207,24.96,0,.023-.011.046-.015.066A28.8,28.8,0,0,0,53.8,66.468c6.227-.741,32.674-15.072,54.807-22.154C130.972,36.522,149.826,41.846,150,42.1Z" transform="translate(70.525 79.772)" fill="#f17e17"/>
  <path id="Path_3043" data-name="Path 3043" d="M31.962,44.325l.058.037c0-.021.01-.044.015-.066C32.01,44.3,31.986,44.313,31.962,44.325Z" transform="translate(70.484 97.684)" fill="#ea7712"/>
  <path id="Path_3044" data-name="Path 3044" d="M44.069,30.727C61.491,4.034,86.311-3.833,102.7,1.639,96.512,1.2,88.774,4.085,88.79,4.1a9.971,9.971,0,0,1,5.481,4.16,27.764,27.764,0,0,0-12.993,1.6c.029.023,3.095,2.266,4.594,8.3A21.746,21.746,0,0,0,74.235,16.83a46.131,46.131,0,0,1,3.908,14.18C72.295,26.3,67.69,25.645,67.677,25.641c.022.013,1.739,8.2,4.661,19.811C58.258,28.312,44.276,30.864,44.069,30.727Z" transform="translate(97.185 0)" fill="#f17e17"/>
  <path id="Path_3045" data-name="Path 3045" d="M61.678,24.71c-.024-.867-27.165,4.759-44.5,13.206,0,.012,0,.025-.007.038a11.6,11.6,0,0,0,8.49,3.079c5.978-.385,12.528-6.266,18.891-9.745S61.975,24.556,61.678,24.71Z" transform="translate(37.873 54.3)" fill="#f17e17"/>
  <path id="Path_3046" data-name="Path 3046" d="M17.167,28.784a.085.085,0,0,0,.022.024c0-.012.005-.026.007-.038A.041.041,0,0,1,17.167,28.784Z" transform="translate(37.858 63.446)" fill="#ea7712"/>
  <path id="Path_3047" data-name="Path 3047" d="M65.934,32.254A271.774,271.774,0,0,0,39.374,42.9c-10.781,4.917-15.292,7.72-23.762,12.685,0,.015,0,.03,0,.045,1.7,1.259,6.911,3.955,12.5,2.458C31.585,57.431,65.89,32.18,65.934,32.254Z" transform="translate(34.421 71.123)" fill="#f17e17"/>
  <path id="Path_3048" data-name="Path 3048" d="M15.61,39.563c0-.016,0-.032,0-.046h0" transform="translate(34.423 87.147)" fill="#ea7712"/>
  <path id="Path_3049" data-name="Path 3049" d="M163.4,58.532c-15.2-10.48-50.316,5.26-50.316,5.26s-7.03,3.061-17.537,7.882c-2.238,22.948-3.679,46.64-3.712,61.919,0,9.916-19.746,16.021-19.672,7.908.215-15.9,1.8-38.832,4.087-60.778-7.717,3.7-15.975,7.763-24.114,11.954,1.7,14.462,3.738,28.243,5.634,37.758,1.579,7.848-13.074,15.829-14.309,9.4-1.959-10.455-3.944-24.885-5.528-39.614C25.98,106.776,15.31,113.268,8.482,118.77c-8.012,6.458-23.738,27.915,30,45.809C71.157,175.457,100.6,183.36,100.6,183.36s12.06-15.015,31.809-44.663S178.6,69.01,163.4,58.532Z" transform="translate(0 121.142)" fill="#1b7398"/>
  <path id="Path_3050" data-name="Path 3050" d="M61.808,51.934q1-2.689,2.048-5.369,1.166-3.008,2.369-6.006c4.124-10.236,8.588-20.374,13.408-30.324A309.3,309.3,0,0,0,61.259,39.85a23.721,23.721,0,0,0-4.5,2.295q-7.954,18.71-14.176,37.727c-.817.287-1.641.59-2.508.936-4.646,14.221-9.416,30.38-12.741,45.155a132.709,132.709,0,0,1,14.832-6.523c.017.01,4.739-20.6,9.273-36.528Q56.044,67.36,61.808,51.934Z" transform="translate(60.28 22.568)" fill="#f17e17"/>
  <path id="Path_3051" data-name="Path 3051" d="M27.168,57.187q.372-2.333.78-4.665.435-2.53.9-5.056C30.484,38.7,32.4,29.952,34.634,21.3a249.449,249.449,0,0,0-9.82,26.366A19.057,19.057,0,0,0,21.619,50.2c-2.391,11.609-4.237,23.233-5.534,34.785-.716.489-1.42.975-2.044,1.423A341.618,341.618,0,0,0,11.7,121.221a107.089,107.089,0,0,1,10.69-7.521l.042.018c.031-9.992.493-19.742,1.441-30.075Q25.041,70.46,27.168,57.187Z" transform="translate(25.805 46.971)" fill="#f17e17"/>
  <path id="Path_3052" data-name="Path 3052" d="M19.084,43.12C28.617,19.214,47.006,9.032,60.849,10.748c-4.969.64-10.631,4.159-10.617,4.164a8.052,8.052,0,0,1,5,2.417A22.369,22.369,0,0,0,45.2,20.666c.028.012,2.81,1.3,4.96,5.836a17.567,17.567,0,0,0-9.421.807,37.237,37.237,0,0,1,5.355,10.6c-5.379-2.79-9.129-2.578-9.141-2.581.021.009,2.685,6.213,6.849,14.936C29.928,38.946,19.27,43.193,19.084,43.12Z" transform="translate(42.086 23.295)" fill="#f17e17"/>
  <path id="Path_3053" data-name="Path 3053" d="M1.862,75.055c4.7-7.457,14.6-20.014,33.877-33.443a.272.272,0,0,0,.035.015C33.721,49.789,30.989,52.2,24.452,57.138S3.6,73.306,1.862,75.055Z" transform="translate(4.107 91.767)" fill="#f17e17"/>
</svg>
